HIERARCHY
ROOT Hips
{
	OFFSET 0.00000 0.00000 0.00000
	CHANNELS 6 Xposition Yposition Zposition Zrotation Yrotation Xrotation 
	JOINT LHipJoint
	{
		OFFSET 0 0 0
		CHANNELS 3 Zrotation Yrotation Xrotation
		JOINT LeftHip
		{
			OFFSET 1.48831 -1.59570 0.95625
			CHANNELS 3 Zrotation Yrotation Xrotation
			JOINT LeftKnee
			{
				OFFSET 2.20856 -6.06797 0.00000
				CHANNELS 3 Zrotation Yrotation Xrotation
				JOINT LeftAnkle
				{
					OFFSET 2.62924 -7.22379 0.00000
					CHANNELS 3 Zrotation Yrotation Xrotation
					JOINT LeftToe
					{
						OFFSET 0.16802 -0.46163 2.41673
						CHANNELS 3 Zrotation Yrotation Xrotation
						End Site
						{
							OFFSET 0.00000 -0.00000 1.23760
						}
					}
				}
			}
		}
	}
	JOINT RHipJoint
	{
		OFFSET 0 0 0
		CHANNELS 3 Zrotation Yrotation Xrotation
		JOINT RightHip
		{
			OFFSET -1.56796 -1.59570 0.95625
			CHANNELS 3 Zrotation Yrotation Xrotation
			JOINT RightKnee
			{
				OFFSET -2.29239 -6.29829 0.00000
				CHANNELS 3 Zrotation Yrotation Xrotation
				JOINT RightAnkle
				{
					OFFSET -2.66963 -7.33475 0.00000
					CHANNELS 3 Zrotation Yrotation Xrotation
					JOINT RightToe
					{
						OFFSET -0.18185 -0.49964 2.34359
						CHANNELS 3 Zrotation Yrotation Xrotation
						End Site
						{
							OFFSET -0.00000 -0.00000 1.20477
						}
					}
				}
			}
		}
	}
	JOINT lowerback
	{
		OFFSET 0 0 0
		CHANNELS 3 Zrotation Yrotation Xrotation
		JOINT Chest
		{
			OFFSET 0.03505 2.15832 -0.34324
			CHANNELS 3 Zrotation Yrotation Xrotation
			JOINT Chest2
			{
				OFFSET -0.01089 2.17963 0.04689
				CHANNELS 3 Zrotation Yrotation Xrotation
				JOINT lowerneck
				{
					OFFSET 0 0 0
					CHANNELS 3 Zrotation Yrotation Xrotation
					JOINT Neck
					{
						OFFSET 0.04686 1.69404 0.22159
						CHANNELS 3 Zrotation Yrotation Xrotation
						JOINT Head
						{
							OFFSET 0.00265 1.69305 -0.01513
							CHANNELS 3 Zrotation Yrotation Xrotation
							End Site
							{
								OFFSET -0.00415 1.80215 -0.03034
							}
						}
					}
				}
				JOINT LeftCollar
				{
					OFFSET 0 0 0
					CHANNELS 3 Zrotation Yrotation Xrotation
					JOINT LeftShoulder
					{
						OFFSET 3.67184 1.11724 -0.19002
CHANNELS 3 Zrotation Xrotation Yrotation
						JOINT LeftElbow
						{
OFFSET 0 -5.177140 -0.000000
CHANNELS 3 Zrotation Xrotation Yrotation
							JOINT LeftWrist
							{
OFFSET 0 -3.436790 -0.000000
CHANNELS 3 Zrotation Xrotation Yrotation
								JOINT lhand
								{
									OFFSET 0 0 0
CHANNELS 3 Zrotation Xrotation Yrotation
									JOINT LFingers
									{
OFFSET 0 -0.573120 -0.000000
CHANNELS 3 Zrotation Xrotation Yrotation
										End Site
										{
OFFSET 0 -0.462060 -0.000000
										}
									}
								}
								JOINT LThumb
								{
OFFSET 0 0.000000 0.000000
CHANNELS 3 Zrotation Xrotation Yrotation
									End Site
									{
OFFSET 0 -0.469120 0.469120
									}
								}
							}
						}
					}
				}
				JOINT RightCollar
				{
					OFFSET 0 0 0
					CHANNELS 3 Zrotation Yrotation Xrotation
					JOINT RightShoulder
					{
						OFFSET -3.59596 0.95831 -0.26050
CHANNELS 3 Zrotation Xrotation Yrotation
						JOINT RightElbow
						{
OFFSET 0 -5.239080 -0.000000
CHANNELS 3 Zrotation Xrotation Yrotation
							JOINT RightWrist
							{
OFFSET 0 -3.464850 -0.000000
CHANNELS 3 Zrotation Xrotation Yrotation
								JOINT rhand
								{
									OFFSET 0 0 0
CHANNELS 3 Zrotation Xrotation Yrotation
									JOINT RFingers
									{
OFFSET 0 -0.608750 -0.000000
CHANNELS 3 Zrotation Xrotation Yrotation
										End Site
										{
OFFSET 0 -0.490790 -0.000000
										}
									}
								}
								JOINT RThumb
								{
OFFSET 0 0.000000 0.000000
CHANNELS 3 Zrotation Xrotation Yrotation
									End Site
									{
OFFSET 0 -0.498290 0.498290
									}
								}
							}
						}
					}
				}
			}
		}
	}
}
MOTION
Frames: 10
Frame Time: 0.008333333333333333
9.063397 14.112833 -4.248311 -23.479266 -87.647656 33.692502 0.000000 0.000000 0.000000 -7.980902 -0.682613 -56.316881 14.335957 19.212821 73.227984 2.010603 -7.650281 -25.471978 0.430851 -4.212457 -11.675207 0.000000 0.000000 0.000000 15.145784 2.715546 -57.102768 -16.444981 -19.694270 79.554853 -3.127514 2.019983 -33.006012 -0.420864 4.163834 -11.538138 2.274723 -1.497604 20.117450 -0.273821 -1.555230 0.432627 -1.142163 -0.890110 -10.909507 2.649575 0.419036 -13.581206 0.775171 -0.027400 -0.889841 -0.214449 -0.049463 2.047907 0.000000 0.000000 0.000000 31.488698 -47.086263 -25.333084 65.988230 -57.705236 39.365369 5.367168 2.840884 -16.095871 0.000000 0.000000 0.000000 -7.125000 0.000000 0.000000 -20.673520 45.079737 0.042544 0.000000 0.000000 0.000000 -31.174277 -50.506281 22.787821 -64.476269 -57.389349 -38.089594 -0.853963 18.057715 10.700624 0.000000 0.000000 0.000000 7.125000 0.000000 0.000000 22.631045 39.610551 3.198206
9.063191 14.112499 -4.249134 -23.471399 -87.647167 33.688106 0.000000 0.000000 0.000000 -7.976506 -0.680839 -56.323642 14.338271 19.213464 73.234951 2.010809 -7.653443 -25.473135 0.430954 -4.212971 -11.676621 0.000000 0.000000 0.000000 15.149152 2.717037 -57.109504 -16.448143 -19.694810 79.564160 -3.128543 2.020548 -33.011437 -0.420993 4.164503 -11.540015 2.274569 -1.497013 20.118350 -0.276264 -1.554690 0.431882 -1.144888 -0.889930 -10.910921 2.644124 0.417108 -13.579818 0.778513 -0.029199 -0.895523 -0.212546 -0.050388 2.045722 0.000000 0.000000 0.000000 31.491295 -47.088988 -25.324651 65.987690 -57.705107 39.364906 5.362103 2.838853 -16.097414 0.000000 0.000000 0.000000 -7.125000 0.000000 0.000000 -20.678559 45.080611 0.043033 0.000000 0.000000 0.000000 -31.172632 -50.509443 22.792063 -64.475806 -57.389246 -38.089183 -0.849490 18.047946 10.705072 0.000000 0.000000 0.000000 7.125000 0.000000 0.000000 22.636136 39.614253 3.196818
9.062986 14.112164 -4.249957 -23.463532 -87.646679 33.683709 0.000000 0.000000 0.000000 -7.972109 -0.679065 -56.330404 14.340585 19.214107 73.241918 2.011014 -7.656606 -25.474292 0.431057 -4.213485 -11.678035 0.000000 0.000000 0.000000 15.152520 2.718528 -57.116240 -16.451306 -19.695350 79.573467 -3.129571 2.021114 -33.016862 -0.421121 4.165171 -11.541892 2.274414 -1.496422 20.119250 -0.278706 -1.554150 0.431136 -1.147613 -0.889750 -10.912335 2.638674 0.415179 -13.578429 0.781856 -0.030999 -0.901205 -0.210644 -0.051314 2.043537 0.000000 0.000000 0.000000 31.493892 -47.091713 -25.316218 65.987150 -57.704979 39.364443 5.357038 2.836822 -16.098956 0.000000 0.000000 0.000000 -7.125000 0.000000 0.000000 -20.683598 45.081485 0.043521 0.000000 0.000000 0.000000 -31.170986 -50.512606 22.796305 -64.475343 -57.389143 -38.088772 -0.845016 18.038176 10.709519 0.000000 0.000000 0.000000 7.125000 0.000000 0.000000 22.641226 39.617955 3.195429
9.062780 14.111830 -4.250779 -23.455665 -87.646190 33.679313 0.000000 0.000000 0.000000 -7.967713 -0.677291 -56.337166 14.342898 19.214750 73.248885 2.011220 -7.659768 -25.475449 0.431160 -4.214000 -11.679449 0.000000 0.000000 0.000000 15.155888 2.720019 -57.122976 -16.454468 -19.695890 79.582774 -3.130599 2.021680 -33.022286 -0.421250 4.165840 -11.543769 2.274260 -1.495830 20.120149 -0.281148 -1.553610 0.430390 -1.150338 -0.889570 -10.913749 2.633224 0.413251 -13.577041 0.785198 -0.032799 -0.906886 -0.208741 -0.052239 2.041351 0.000000 0.000000 0.000000 31.496488 -47.094438 -25.307785 65.986610 -57.704850 39.363980 5.351973 2.834791 -16.100499 0.000000 0.000000 0.000000 -7.125000 0.000000 0.000000 -20.688637 45.082359 0.044010 0.000000 0.000000 0.000000 -31.169341 -50.515768 22.800547 -64.474880 -57.389040 -38.088360 -0.840543 18.028406 10.713967 0.000000 0.000000 0.000000 7.125000 0.000000 0.000000 22.646317 39.621658 3.194041
9.063030 14.111166 -4.251869 -23.288704 -87.639205 33.523544 0.000000 0.000000 0.000000 -7.964007 -0.685011 -56.356277 14.345762 19.215565 73.257595 2.010735 -7.663103 -25.472071 0.431231 -4.214357 -11.680439 0.000000 0.000000 0.000000 15.156368 2.717493 -57.143772 -16.459043 -19.696681 79.596334 -3.131612 2.020754 -33.028072 -0.421206 4.165661 -11.543245 2.270496 -1.497813 20.116938 -0.283230 -1.557229 0.426742 -1.149454 -0.891132 -10.916152 2.628338 0.411637 -13.575543 0.787834 -0.034253 -0.911909 -0.207121 -0.052992 2.039354 0.000000 0.000000 0.000000 31.499524 -47.095061 -25.298866 65.988095 -57.705145 39.365244 5.345779 2.830877 -16.103564 0.000000 0.000000 0.000000 -7.125000 0.000000 0.000000 -20.695245 45.084520 0.045173 0.000000 0.000000 0.000000 -31.166142 -50.519479 22.805809 -64.473743 -57.388796 -38.087400 -0.836195 18.018637 10.718682 0.000000 0.000000 0.000000 7.125000 0.000000 0.000000 22.651423 39.625642 3.192480
9.063569 14.110292 -4.253129 -23.020194 -87.628073 33.271153 0.000000 0.000000 0.000000 -7.960742 -0.698792 -56.383272 14.348975 19.216490 73.267416 2.009810 -7.666548 -25.465798 0.431283 -4.214614 -11.681159 0.000000 0.000000 0.000000 15.155006 2.712402 -57.173544 -16.464519 -19.697632 79.612608 -3.132615 2.018878 -33.034088 -0.421052 4.164941 -11.541188 2.264429 -1.501438 20.111102 -0.285081 -1.563502 0.421240 -1.146266 -0.893806 -10.919185 2.623813 0.410223 -13.573974 0.790019 -0.035487 -0.916511 -0.205681 -0.053635 2.037478 0.000000 0.000000 0.000000 31.502841 -47.094341 -25.289637 65.990871 -57.705711 39.367609 5.338863 2.825761 -16.107600 0.000000 0.000000 0.000000 -7.125000 0.000000 0.000000 -20.702855 45.087503 0.046767 0.000000 0.000000 0.000000 -31.161951 -50.523542 22.811723 -64.472174 -57.388462 -38.086088 -0.831927 18.008867 10.723566 0.000000 0.000000 0.000000 7.125000 0.000000 0.000000 22.656539 39.629807 3.190809
9.064109 14.109418 -4.254388 -22.751684 -87.616941 33.018763 0.000000 0.000000 0.000000 -7.957477 -0.712572 -56.410267 14.352189 19.217416 73.277237 2.008884 -7.669993 -25.459525 0.431334 -4.214871 -11.681879 0.000000 0.000000 0.000000 15.153643 2.707312 -57.203316 -16.469995 -19.698583 79.628882 -3.133617 2.017001 -33.040104 -0.420897 4.164221 -11.539131 2.258362 -1.505063 20.105266 -0.286932 -1.569775 0.415738 -1.143078 -0.896480 -10.922219 2.619288 0.408809 -13.572406 0.792205 -0.036721 -0.921113 -0.204242 -0.054278 2.035601 0.000000 0.000000 0.000000 31.506157 -47.093621 -25.280407 65.993648 -57.706276 39.369974 5.331947 2.820645 -16.111637 0.000000 0.000000 0.000000 -7.125000 0.000000 0.000000 -20.710465 45.090485 0.048361 0.000000 0.000000 0.000000 -31.157761 -50.527604 22.817636 -64.470606 -57.388128 -38.084777 -0.827659 17.999097 10.728451 0.000000 0.000000 0.000000 7.125000 0.000000 0.000000 22.661655 39.633972 3.189138
9.064649 14.108544 -4.255648 -22.483174 -87.605808 32.766373 0.000000 0.000000 0.000000 -7.954212 -0.726352 -56.437262 14.355403 19.218342 73.287058 2.007958 -7.673438 -25.453252 0.431386 -4.215128 -11.682599 0.000000 0.000000 0.000000 15.152280 2.702221 -57.233087 -16.475471 -19.699534 79.645156 -3.134620 2.015124 -33.046120 -0.420743 4.163501 -11.537074 2.252294 -1.508688 20.099430 -0.288783 -1.576048 0.410236 -1.139890 -0.899153 -10.925253 2.614763 0.407395 -13.570838 0.794390 -0.037955 -0.925715 -0.202802 -0.054921 2.033724 0.000000 0.000000 0.000000 31.509474 -47.092901 -25.271177 65.996425 -57.706842 39.372340 5.325031 2.815529 -16.115673 0.000000 0.000000 0.000000 -7.125000 0.000000 0.000000 -20.718075 45.093467 0.049955 0.000000 0.000000 0.000000 -31.153570 -50.531666 22.823549 -64.469038 -57.387793 -38.083466 -0.823392 17.989328 10.733336 0.000000 0.000000 0.000000 7.125000 0.000000 0.000000 22.666771 39.638137 3.187467
9.065523 14.107466 -4.257093 -22.152307 -87.591155 32.457204 0.000000 0.000000 0.000000 -7.950613 -0.745099 -56.473393 14.358968 19.219341 73.297879 2.006533 -7.676605 -25.443810 0.431511 -4.215663 -11.684116 0.000000 0.000000 0.000000 15.149750 2.696186 -57.272754 -16.481837 -19.700615 79.664024 -3.135493 2.011783 -33.051654 -0.420348 4.161540 -11.531534 2.244059 -1.513629 20.090443 -0.290227 -1.584471 0.402715 -1.134423 -0.902661 -10.928843 2.610813 0.406277 -13.569288 0.795704 -0.038837 -0.929335 -0.201733 -0.055378 2.032199 0.000000 0.000000 0.000000 31.514366 -47.090476 -25.261391 65.999868 -57.707537 39.375261 5.317652 2.809115 -16.120543 0.000000 0.000000 0.000000 -7.125000 0.000000 0.000000 -20.726426 45.097135 0.051938 0.000000 0.000000 0.000000 -31.147285 -50.536043 22.830537 -64.467229 -57.387404 -38.081951 -0.819717 17.981226 10.738091 0.000000 0.000000 0.000000 7.125000 0.000000 0.000000 22.671313 39.642191 3.185758
9.066525 14.106309 -4.258610 -21.797284 -87.575138 32.126039 0.000000 0.000000 0.000000 -7.946885 -0.765769 -56.513063 14.362671 19.220370 73.309089 2.004913 -7.679665 -25.433140 0.431665 -4.216306 -11.685941 0.000000 0.000000 0.000000 15.146768 2.689784 -57.316255 -16.488547 -19.701747 79.683898 -3.136316 2.007875 -33.057002 -0.419859 4.159097 -11.524644 2.234983 -1.519079 20.080237 -0.291512 -1.593727 0.394410 -1.128073 -0.906492 -10.932648 2.607085 0.405275 -13.567746 0.796681 -0.039583 -0.932574 -0.200807 -0.055764 2.030811 0.000000 0.000000 0.000000 31.519867 -47.087391 -25.251390 66.003571 -57.708283 39.378397 5.310093 2.802199 -16.125737 0.000000 0.000000 0.000000 -7.125000 0.000000 0.000000 -20.735065 45.101069 0.054072 0.000000 0.000000 0.000000 -31.140190 -50.540542 22.837941 -64.465326 -57.386992 -38.080357 -0.816272 17.973770 10.742796 0.000000 0.000000 0.000000 7.125000 0.000000 0.000000 22.675632 39.646202 3.184036
